# xmcd CD database file
#
# Track frame offsets:
#	150
#	21192
#	45301
#	64368
#	82960
#	105687
#	124167
#	145994
#	165986
#	182475
#	199440
#	219697
#	246944
#	263173
#	282233
#	299910
#	317862
#
# Disc length: 4612 seconds
#
# Revision: 13
# Processed by: cddbd v1.5.2PL0 Copyright (c) Steve Scherf et al.
# Submitted via: CDex 1.51
#
DISCID=0a120211
DTITLE=Billy Joel - Greatest Hits Volume III
DYEAR=1997
DGENRE=Rock
TTITLE0=Keeping The Faith
TTITLE1=An Innocent Man
TTITLE2=A Matter Of Trust
TTITLE3=Baby Grand (Duet w/ Ray Charles)
TTITLE4=This Is The Time
TTITLE5=Leningrad
TTITLE6=We Didn't Start The Fire
TTITLE7=I Go To Extremes
TTITLE8=And So It Goes
TTITLE9=The Downeaster "Alexa"
TTITLE10=Shameless
TTITLE11=All About Soul [Remix]
TTITLE12=Lullabye (Goodnight, My Angel)
TTITLE13=The River Of Dreams
TTITLE14=To Make You Feel My Love
TTITLE15=Hey Girl
TTITLE16=Light As The Breeze
EXTD=YEAR: 1997
EXTT0=
EXTT1=
EXTT2=
EXTT3=
EXTT4=
EXTT5=
EXTT6=
EXTT7=
EXTT8=
EXTT9=
EXTT10=
EXTT11=
EXTT12=
EXTT13=
EXTT14=
EXTT15=
EXTT16=
PLAYORDER=
